<svg overflow="hidden" style="display: block;" width="90.3331" height="38.3002" viewBox="0 0 90.3331 38.3002" fill="none" xmlns="http://www.w3.org/2000/svg">
<g id="ItronLogo24 1">
<g id="Group">
<path id="Vector" d="M56.5011 3.01934L53.4039 21.8631L72.9179 0L56.5011 3.01934Z" fill="#FFC845"/>
<path id="Vector_2" d="M60.539 17.0666L56.5042 21.5888C57.9157 22.672 58.877 24.3915 58.877 26.3108C58.877 29.5941 56.2131 32.258 52.9297 32.258C49.6464 32.258 46.9825 29.5941 46.9825 26.3108C46.9825 23.5825 48.9491 21.3079 51.4539 20.6072L52.4829 14.3451C46.1261 14.643 40.9404 19.8794 40.9404 26.3108C40.9404 32.7421 46.3089 38.3001 52.9297 38.3001C59.5506 38.3001 64.9191 32.9316 64.9191 26.3108C64.9191 22.6077 63.1759 19.2668 60.539 17.07V17.0666Z" fill="#CB2C30"/>
<path id="Vector_3" d="M18.8877 8.55697L12.3683 9.74507V15.6551H9.15944V21.0676H12.3683V28.7242C12.3683 35.7445 15.3944 37.613 20.4989 37.5961C21.1386 37.5961 23.3287 37.5927 23.3287 37.5927L23.3219 30.9007C23.3219 30.9007 21.0878 30.9617 20.5598 30.7247C19.4936 30.2441 18.8978 29.5095 18.8978 28.291C18.8978 28.2876 18.8944 21.0811 18.8944 21.0811H23.3253V15.6585H18.8877V8.55697Z" fill="#CB2C30"/>
<path id="Vector_4" d="M7.62939e-05 7.45684V37.596H6.61418V6.23828L7.62939e-05 7.45684Z" fill="#CB2C30"/>
</g>
<path id="Vector_5" d="M39.0961 14.5687C36.4525 14.5958 34.1677 15.337 32.3297 17.5609V14.4536L27.5231 15.337L25.8747 15.6485V37.5928L32.35 37.5996V25.9927C32.3534 25.7626 32.3534 24.9739 32.3534 24.7945C32.3534 22.1035 34.5333 19.9947 37.2243 19.9236C38.0197 19.9033 39.1706 20.0962 39.6817 20.3738C40.8935 17.4221 43.5439 15.2829 43.5439 15.2829C42.1831 14.6804 40.8732 14.5484 39.0995 14.5687H39.0961Z" fill="#CB2C30"/>
<path id="Vector_6" d="M80.7098 14.6195C78.0662 14.6398 75.7204 15.5909 73.967 17.6693L73.9569 14.4367L67.4883 15.6282V37.603H73.9637V26.0503C73.967 25.8201 73.967 25.0314 73.967 24.852C73.967 22.161 76.1469 19.9811 78.8379 19.9811C81.5289 19.9811 83.7088 22.161 83.7088 24.852C83.7088 24.9163 83.7223 25.5053 83.7223 25.7524V37.5928H90.3331V25.7084C90.3128 17.2394 86.3693 14.589 80.7132 14.6296L80.7098 14.6195Z" fill="#CB2C30"/>
</g>
</svg>
