<svg overflow="hidden" style="display: block;" width="130.652" height="27.8042" viewBox="0 0 130.652 27.8042" fill="none" xmlns="http://www.w3.org/2000/svg">
<g id="Group">
<path id="Vector" d="M46.4635 24.1951C45.0799 24.1951 43.8161 23.9322 42.6723 23.4063C41.5284 22.8805 40.6244 22.1371 39.9603 21.1761L42.0081 19.4353C42.4139 20.1788 42.9952 20.7772 43.7515 21.2305C44.5264 21.6656 45.4488 21.8832 46.5189 21.8832C47.3675 21.8832 48.0409 21.7381 48.5391 21.448C49.0371 21.158 49.2862 20.75 49.2862 20.2241C49.2862 19.8796 49.1663 19.5804 48.9265 19.3265C48.705 19.0546 48.2715 18.8461 47.6258 18.701L44.7201 18.1026C43.2442 17.8125 42.1926 17.3502 41.5653 16.7155C40.9381 16.0627 40.6244 15.2378 40.6244 14.2404C40.6244 13.4971 40.8458 12.808 41.2886 12.1733C41.7314 11.5388 42.3771 11.0311 43.2258 10.6503C44.0929 10.2513 45.1259 10.0519 46.3252 10.0519C47.7088 10.0519 48.8896 10.2967 49.8674 10.7863C50.8451 11.2577 51.5923 11.9376 52.1089 12.8261L50.0611 14.5124C49.7105 13.7871 49.194 13.2523 48.5113 12.9077C47.8288 12.5451 47.1185 12.3637 46.3804 12.3637C45.7902 12.3637 45.2827 12.4363 44.8584 12.5813C44.4341 12.7264 44.1113 12.9259 43.8899 13.1797C43.6686 13.4336 43.5578 13.7327 43.5578 14.0772C43.5578 14.4399 43.6962 14.7572 43.9729 15.0292C44.2497 15.3012 44.7478 15.5097 45.4673 15.6547L48.622 16.3075C49.9504 16.5614 50.882 16.9966 51.417 17.613C51.9705 18.2114 52.2472 18.9458 52.2472 19.8161C52.2472 20.6865 52.0166 21.4571 51.5554 22.128C51.0942 22.7808 50.43 23.2884 49.563 23.6511C48.6959 24.0138 47.6627 24.1951 46.4635 24.1951Z" fill="black"/>
<path id="Vector_2" d="M59.8625 24.195C58.9585 24.195 58.119 24.0318 57.3442 23.7054C56.5878 23.379 55.979 22.8532 55.5177 22.1279C55.0565 21.4026 54.8259 20.4597 54.8259 19.2992V10.3237H57.787V18.5649C57.787 19.7979 58.0545 20.6501 58.5895 21.1216C59.1245 21.5748 59.8717 21.8015 60.831 21.8015C61.2923 21.8015 61.735 21.729 62.1594 21.5839C62.6021 21.4207 62.9988 21.176 63.3493 20.8496C63.6998 20.5051 63.9674 20.0699 64.1519 19.544C64.3548 19.0182 64.4562 18.4017 64.4562 17.6945V10.3237H67.4173V23.923H64.816L64.6776 21.7199C64.198 22.5722 63.5522 23.1977 62.7405 23.5966C61.9287 23.9955 60.9694 24.195 59.8625 24.195Z" fill="black"/>
<path id="Vector_3" d="M70.7712 23.9231V10.3239H73.4002L73.5939 13.8596L73.2065 13.4789C73.4648 12.6992 73.8337 12.0555 74.3134 11.5479C74.8115 11.022 75.3927 10.6412 76.0569 10.4055C76.7394 10.1697 77.459 10.0519 78.2154 10.0519C79.1932 10.0519 80.0695 10.2423 80.8443 10.6231C81.6377 10.9857 82.2649 11.5388 82.7261 12.2821C83.1873 13.0256 83.4179 13.9684 83.4179 15.1108V23.9231H80.4569V16.0083C80.4569 14.6666 80.1709 13.7418 79.5991 13.2341C79.0456 12.7083 78.3444 12.4453 77.4958 12.4453C76.8871 12.4453 76.2967 12.5904 75.7247 12.8805C75.1529 13.1525 74.6732 13.5967 74.2858 14.2132C73.9168 14.8298 73.7323 15.6547 73.7323 16.6883V23.9231H70.7712Z" fill="black"/>
<path id="Vector_4" d="M91.9954 24.1951C90.8515 24.1951 89.8091 23.9141 88.8682 23.3519C87.9458 22.7898 87.217 21.983 86.6821 20.9312C86.1471 19.8796 85.8796 18.6195 85.8796 17.1507C85.8796 15.6276 86.1655 14.3402 86.7375 13.2885C87.3093 12.2368 88.075 11.439 89.0343 10.8951C89.9937 10.3329 91.0452 10.0519 92.1891 10.0519C93.3698 10.0519 94.3661 10.3692 95.1778 11.0038C95.9895 11.6384 96.5337 12.4635 96.8105 13.4789L96.4784 13.7781V4.2042H99.4394V23.9231H96.8105L96.5891 20.2241L96.9765 20.2513C96.8474 21.0672 96.543 21.7744 96.0633 22.3728C95.5837 22.953 94.9841 23.4063 94.2645 23.7327C93.5635 24.041 92.8071 24.1951 91.9954 24.1951ZM92.6319 21.856C93.4252 21.856 94.1077 21.6566 94.6797 21.2576C95.2516 20.8587 95.6944 20.2967 96.008 19.5713C96.3216 18.846 96.4784 17.9757 96.4784 16.9603C96.4784 16.0174 96.3216 15.2105 96.008 14.5397C95.6944 13.8506 95.2516 13.3247 94.6797 12.9621C94.1262 12.5995 93.4805 12.4182 92.7425 12.4182C91.5064 12.4182 90.5471 12.8352 89.8645 13.6693C89.182 14.5034 88.8406 15.6548 88.8406 17.1235C88.8406 18.5923 89.1727 19.7527 89.8369 20.6049C90.501 21.439 91.4326 21.856 92.6319 21.856Z" fill="black"/>
<path id="Vector_5" d="M104.628 8.0393C103.983 8.0393 103.484 7.88518 103.134 7.57694C102.802 7.25055 102.636 6.79725 102.636 6.21701C102.636 5.63678 102.802 5.19253 103.134 4.88428C103.484 4.57603 103.983 4.42191 104.628 4.42191C105.256 4.42191 105.735 4.57603 106.067 4.88428C106.418 5.19253 106.593 5.63678 106.593 6.21701C106.593 6.79725 106.418 7.25055 106.067 7.57694C105.735 7.88518 105.256 8.0393 104.628 8.0393ZM106.095 10.324V23.9233H103.134V10.324H106.095Z" fill="black"/>
<path id="Vector_6" d="M117.799 15.1923C117.799 14.2858 117.541 13.5876 117.025 13.098C116.527 12.5904 115.835 12.3365 114.949 12.3365C114.119 12.3365 113.409 12.5269 112.818 12.9076C112.228 13.2884 111.794 13.905 111.518 14.7572L109.027 13.7236C109.378 12.6176 110.061 11.7291 111.075 11.0581C112.109 10.3873 113.437 10.0519 115.06 10.0519C116.167 10.0519 117.144 10.2332 117.993 10.5959C118.841 10.9404 119.506 11.4661 119.986 12.1733C120.484 12.8805 120.733 13.7871 120.733 14.8931V20.9584C120.733 21.6293 121.074 21.9648 121.757 21.9648C122.089 21.9648 122.412 21.9195 122.725 21.8288L122.56 23.8415C122.135 24.041 121.6 24.1407 120.955 24.1407C120.364 24.1407 119.829 24.041 119.349 23.8415C118.888 23.6239 118.519 23.3066 118.242 22.8895C117.984 22.4544 117.855 21.9195 117.855 21.2848V21.0944L118.464 21.0672C118.297 21.7744 117.956 22.3637 117.44 22.8351C116.924 23.2884 116.324 23.633 115.641 23.8687C114.959 24.0863 114.267 24.1951 113.566 24.1951C112.699 24.1951 111.915 24.0591 111.214 23.7871C110.531 23.5151 109.986 23.1071 109.581 22.5631C109.193 22.0011 108.999 21.312 108.999 20.4961C108.999 19.4807 109.331 18.6466 109.996 17.9938C110.678 17.341 111.637 16.8968 112.873 16.6611L118.242 15.6275L118.214 17.6674L114.312 18.4562C113.538 18.6013 112.957 18.8097 112.569 19.0817C112.182 19.3537 111.988 19.7527 111.988 20.2785C111.988 20.7861 112.182 21.1941 112.569 21.5024C112.975 21.7925 113.51 21.9376 114.175 21.9376C114.636 21.9376 115.078 21.8832 115.503 21.7744C115.945 21.6656 116.342 21.4933 116.693 21.2576C117.043 21.0037 117.311 20.6864 117.495 20.3057C117.698 19.9068 117.799 19.4353 117.799 18.8913V15.1923Z" fill="black"/>
<path id="Vector_7" d="M127.385 4.2042V20.1153C127.385 20.7862 127.506 21.2486 127.746 21.5024C127.985 21.7563 128.382 21.8832 128.935 21.8832C129.268 21.8832 129.544 21.8651 129.765 21.8288C130.005 21.7744 130.301 21.6838 130.652 21.5568L130.319 23.7327C130.005 23.8778 129.646 23.9866 129.24 24.0591C128.834 24.1498 128.429 24.1951 128.022 24.1951C126.786 24.1951 125.873 23.8869 125.283 23.2703C124.71 22.6357 124.424 21.6656 124.424 20.3601V4.2042H127.385Z" fill="black"/>
<path id="Vector_8" fill-rule="evenodd" clip-rule="evenodd" d="M16.5667 7.52216C16.3722 7.51722 15.9217 7.52295 15.7676 7.51904C15.9115 7.52258 16.3603 7.51658 16.5667 7.52216Z" fill="black"/>
<path id="Vector_9" fill-rule="evenodd" clip-rule="evenodd" d="M0 16.6489C0 10.4954 6.93905 5.47552 15.4641 5.47552C16.2366 5.47552 16.996 5.51655 17.7383 5.59576C18.6695 3.91305 19.5052 2.16905 20.237 0.372158C20.4829 -0.231629 21.484 -0.0595757 21.484 0.59219V6.35507C27.0405 8.05482 30.9419 12.033 30.9283 16.6489C30.9283 22.8023 23.9892 27.8042 15.4641 27.8042C6.93905 27.8042 0 22.8023 0 16.6489ZM2.00061 16.6489C2.00061 11.593 8.32647 7.51849 15.7521 7.51849C15.6307 7.51614 15.8884 7.51928 15.7679 7.51896C15.7634 7.51897 15.7582 7.51849 15.7521 7.51849C15.6621 7.51531 15.8245 7.51998 15.7679 7.51896C15.7634 7.51897 15.7582 7.51849 15.7521 7.51849C15.757 7.51866 15.7623 7.51881 15.7679 7.51896C15.9118 7.5225 16.3607 7.5165 16.5671 7.52208C16.5881 7.52264 16.6066 7.52334 16.622 7.52417C14.6786 10.6652 12.3838 13.5558 9.79083 16.1444C7.91792 18.0142 5.60231 19.3554 3.15392 20.3599C2.41269 19.2254 2.00061 17.9697 2.00061 16.6489ZM28.9277 16.6489C28.9277 21.7048 22.8898 25.8071 15.4641 25.8071C10.9508 25.8071 6.95018 24.2915 4.50632 21.9676L20.0671 15.5587C20.9246 15.2059 21.484 14.3714 21.484 13.4457V8.45673C25.8946 9.96097 28.9277 13.0654 28.9277 16.6489Z" fill="black"/>
</g>
</svg>
