<svg width="40" height="40" viewBox="0 0 40 40" fill="none" xmlns="http://www.w3.org/2000/svg">
<path d="M29.1673 28.875C28.546 28.875 28.0423 29.3787 28.0423 30C28.0423 30.6213 28.546 31.125 29.1673 31.125V30V28.875ZM29.1673 15V13.875L29.1646 13.875L29.1673 15ZM10.868 13.3712L10.9746 14.4911H10.9746L10.868 13.3712ZM15.9924 15.8994C16.4891 16.2726 17.1943 16.1725 17.5676 15.6758C17.9408 15.179 17.8406 14.4738 17.3439 14.1006L16.6681 15L15.9924 15.8994ZM9.77685 30.9358C10.3858 31.0594 10.9796 30.666 11.1032 30.0571C11.2268 29.4482 10.8334 28.8544 10.2244 28.7308L10.0007 29.8333L9.77685 30.9358ZM27.1661 17.8213C26.8833 18.3745 27.1025 19.0522 27.6557 19.335C28.209 19.6178 28.8867 19.3986 29.1695 18.8454L28.1678 18.3333L27.1661 17.8213ZM14.3475 31.3654C13.7274 31.4043 13.2563 31.9385 13.2952 32.5586C13.334 33.1787 13.8683 33.6499 14.4884 33.611L14.4179 32.4882L14.3475 31.3654ZM17.9534 35.6063L16.9806 36.1714C17.1843 36.522 17.5609 36.7359 17.9663 36.7313C18.3717 36.7266 18.7433 36.5041 18.9389 36.149L17.9534 35.6063ZM27.7491 26.0349C28.3206 25.7912 28.5864 25.1303 28.3427 24.5588C28.099 23.9872 27.4382 23.7215 26.8666 23.9651L27.3078 25L27.7491 26.0349ZM20.0007 5V6.125C24.4419 6.125 28.0423 9.72538 28.0423 14.1667H29.1673H30.2923C30.2923 8.48274 25.6846 3.875 20.0007 3.875V5ZM36.6673 22.5H35.5423C35.5423 26.0208 32.6881 28.875 29.1673 28.875V30V31.125C33.9308 31.125 37.7923 27.2635 37.7923 22.5H36.6673ZM29.1673 15V16.125C32.6881 16.125 35.5423 18.9792 35.5423 22.5H36.6673H37.7923C37.7923 17.7365 33.9308 13.875 29.1673 13.875V15ZM29.1299 15.0001L29.1327 16.1251L29.1701 16.125L29.1673 15L29.1646 13.875L29.1272 13.8751L29.1299 15.0001ZM29.1673 14.1667H28.0423C28.0423 14.4138 28.0312 14.6581 28.0095 14.8991L29.1299 15.0001L30.2504 15.1011C30.2782 14.793 30.2923 14.4814 30.2923 14.1667H29.1673ZM3.33398 21.6667H4.45898C4.45898 17.9195 7.31909 14.839 10.9746 14.4911L10.868 13.3712L10.7614 12.2512C5.96214 12.7079 2.20898 16.7483 2.20898 21.6667H3.33398ZM10.868 13.3712L10.9746 14.4911C11.2023 14.4694 11.4333 14.4583 11.6673 14.4583V13.3333V12.2083C11.3621 12.2083 11.0599 12.2228 10.7614 12.2512L10.868 13.3712ZM10.868 13.3712L11.9889 13.4675C12.3425 9.35417 15.7951 6.125 20.0007 6.125V5V3.875C14.617 3.875 10.1999 8.00789 9.74716 13.2748L10.868 13.3712ZM11.6673 13.3333V14.4583C13.2917 14.4583 14.7876 14.9943 15.9924 15.8994L16.6681 15L17.3439 14.1006C15.7628 12.9127 13.7957 12.2083 11.6673 12.2083V13.3333ZM10.0007 29.8333L10.2244 28.7308C6.93469 28.063 4.45898 25.1527 4.45898 21.6667H3.33398H2.20898C2.20898 26.2438 5.45914 30.0594 9.77685 30.9358L10.0007 29.8333ZM29.1299 15.0001L28.0095 14.8991C27.9153 15.9443 27.6213 16.9307 27.1661 17.8213L28.1678 18.3333L29.1695 18.8454C29.7531 17.7039 30.1298 16.4389 30.2504 15.1011L29.1299 15.0001ZM14.4179 32.4882C14.4884 33.611 14.4873 33.611 14.4862 33.6111C14.4858 33.6111 14.4848 33.6112 14.484 33.6112C14.4826 33.6113 14.4812 33.6114 14.4799 33.6115C14.4771 33.6116 14.4745 33.6118 14.4719 33.6119C14.4668 33.6121 14.462 33.6123 14.4575 33.6124C14.4487 33.6127 14.4412 33.6128 14.4351 33.6128C14.4228 33.6128 14.4161 33.6124 14.4145 33.6122C14.4112 33.612 14.4292 33.613 14.4664 33.6212C14.539 33.6371 14.6962 33.6827 14.9194 33.8121C15.3637 34.0697 16.1196 34.6892 16.9806 36.1714L17.9534 35.6063L18.9262 35.0412C17.9152 33.301 16.9033 32.3614 16.0479 31.8655C15.6213 31.6183 15.2456 31.4885 14.9478 31.4233C14.7998 31.3909 14.6732 31.3749 14.5717 31.3677C14.521 31.3642 14.4766 31.3629 14.4391 31.3628C14.4203 31.3628 14.4033 31.363 14.388 31.3635C14.3804 31.3638 14.3732 31.364 14.3664 31.3644C14.3631 31.3645 14.3598 31.3647 14.3566 31.3649C14.3551 31.3649 14.3535 31.365 14.352 31.3651C14.3512 31.3652 14.3501 31.3652 14.3497 31.3653C14.3486 31.3653 14.3475 31.3654 14.4179 32.4882ZM17.9534 35.6063C18.9389 36.149 18.9388 36.1491 18.9388 36.1492C18.9388 36.1492 18.9387 36.1492 18.9388 36.1492C18.9388 36.1491 18.9389 36.1489 18.9391 36.1486C18.9394 36.148 18.9401 36.1468 18.941 36.1451C18.9428 36.1418 18.9458 36.1364 18.9499 36.129C18.9582 36.1143 18.9708 36.0916 18.9879 36.0614C19.0219 36.0011 19.0731 35.911 19.1405 35.7947C19.2752 35.5622 19.4739 35.2255 19.7271 34.8144C20.2342 33.9911 20.956 32.8753 21.8158 31.7026C22.6775 30.5272 23.6652 29.3121 24.7021 28.281C25.75 27.2389 26.7901 26.4437 27.7491 26.0349L27.3078 25L26.8666 23.9651C25.5294 24.5352 24.2521 25.5553 23.1156 26.6855C21.968 27.8267 20.904 29.1408 20.0012 30.3722C19.0964 31.6064 18.3406 32.775 17.8113 33.6345C17.5463 34.0648 17.3371 34.419 17.1935 34.667C17.1216 34.7911 17.0661 34.8887 17.0281 34.956C17.0091 34.9897 16.9945 35.0158 16.9844 35.0339C16.9794 35.043 16.9755 35.05 16.9727 35.055C16.9713 35.0575 16.9703 35.0595 16.9694 35.0609C16.969 35.0616 16.9687 35.0622 16.9685 35.0627C16.9683 35.0629 16.9682 35.0632 16.9681 35.0633C16.968 35.0635 16.9679 35.0637 17.9534 35.6063Z" fill="black"/>
</svg>
