<svg width="22" height="22" viewBox="7.5 7.5 21.5 21.5" fill="none" xmlns="http://www.w3.org/2000/svg">
  <path d="M18.5263 9.05263H22.9474C24.716 9.05263 25.6002 9.05263 26.2758 9.39682C26.87 9.69958 27.3531 10.1827 27.6558 10.7769C28 11.4524 28 12.3367 28 14.1053V22.9474C28 24.716 28 25.6002 27.6558 26.2758C27.3531 26.87 26.87 27.3531 26.2758 27.6558C25.6002 28 24.716 28 22.9474 28H14.1053C12.3367 28 11.4524 28 10.7769 27.6558C10.1827 27.3531 9.69958 26.87 9.39682 26.2758C9.05263 25.6002 9.05263 24.716 9.05263 22.9474V18.5263M14.3158 19.5789V23.7895M22.7368 17.4737V23.7895M18.5263 13.2632V23.7895M14.3158 11.1579L11.1579 8L8 11.1579M11.1579 8L11.1579 14.3158" stroke="#17A5FB" stroke-width="1.6" stroke-linecap="round" stroke-linejoin="round"/>
</svg>
